<svg width="12" height="15" viewBox="0 0 12 15" fill="none" xmlns="http://www.w3.org/2000/svg">
<path d="M10.375 5.5C10.375 3.09375 8.40625 1.125 6 1.125C3.56641 1.125 1.625 3.09375 1.625 5.5C1.625 5.9375 1.76172 6.51172 2.0625 7.25C2.36328 7.96094 2.77344 8.72656 3.26562 9.49219C4.19531 10.9961 5.28906 12.4453 6 13.3203C6.68359 12.4453 7.77734 10.9961 8.73438 9.49219C9.19922 8.72656 9.60938 7.96094 9.91016 7.25C10.2109 6.51172 10.375 5.9375 10.375 5.5ZM11.25 5.5C11.25 7.90625 8.05078 12.1445 6.62891 13.9219C6.30078 14.332 5.67188 14.332 5.34375 13.9219C3.94922 12.1445 0.75 7.90625 0.75 5.5C0.75 2.60156 3.10156 0.25 6 0.25C8.89844 0.25 11.25 2.60156 11.25 5.5ZM4.6875 5.5C4.6875 5.99219 4.93359 6.40234 5.34375 6.64844C5.72656 6.89453 6.24609 6.89453 6.65625 6.64844C7.03906 6.40234 7.3125 5.99219 7.3125 5.5C7.3125 5.03516 7.03906 4.625 6.65625 4.37891C6.24609 4.13281 5.72656 4.13281 5.34375 4.37891C4.93359 4.625 4.6875 5.03516 4.6875 5.5ZM6 7.6875C5.20703 7.6875 4.49609 7.27734 4.08594 6.59375C3.70312 5.9375 3.70312 5.08984 4.08594 4.40625C4.49609 3.75 5.20703 3.3125 6 3.3125C6.76562 3.3125 7.47656 3.75 7.88672 4.40625C8.26953 5.08984 8.26953 5.9375 7.88672 6.59375C7.47656 7.27734 6.76562 7.6875 6 7.6875Z" fill="#5F5F5F"/>
</svg>
