<svg width="12" height="12" viewBox="0 0 12 12" fill="none" xmlns="http://www.w3.org/2000/svg">
<path d="M11.9963 5.99985C11.9963 6.25369 11.7887 6.46139 11.535 6.46139H6.46125V11.5383C6.46125 11.7934 6.25496 12.0001 6 12.0001C5.74504 12.0001 5.53875 11.7922 5.53875 11.5383V6.46139H0.464964C0.210006 6.46139 0.00371075 6.25514 0.00371075 6.00014C0.00371075 5.746 0.210121 5.53831 0.464964 5.53831H5.53875V0.461385C5.53875 0.20627 5.74504 0.000134945 6 0.000134945C6.25496 0.000134945 6.46125 0.206385 6.46125 0.461385V5.53831H11.535C11.7887 5.53831 11.9963 5.746 11.9963 5.99985Z" fill="white"/>
</svg>
